<svg width="24" height="24" viewBox="0 0 24 24" fill="none" xmlns="http://www.w3.org/2000/svg">
<path d="M5 3V21H11.8571V17.5H14.1429V21H21V3H5ZM7.28571 5H9.57143V7H7.28571V5ZM11.8571 5H14.1429V7H11.8571V5ZM16.4286 5H18.7143V7H16.4286V5ZM7.28571 9H9.57143V11H7.28571V9ZM11.8571 9H14.1429V11H11.8571V9ZM16.4286 9H18.7143V11H16.4286V9ZM7.28571 13H9.57143V15H7.28571V13ZM11.8571 13H14.1429V15H11.8571V13ZM16.4286 13H18.7143V15H16.4286V13ZM7.28571 17H9.57143V19H7.28571V17ZM16.4286 17H18.7143V19H16.4286V17Z" fill="#222E50"/>
</svg>
